<svg width="260" height="140" viewBox="0 0 260 140" fill="none" xmlns="http://www.w3.org/2000/svg">
<path opacity="0.6" d="M250.466 62.5962C242.329 43.1669 226.404 26.5921 207.167 23.8906C202.08 23.1764 196.769 23.4628 192.05 25.6755C185.855 28.58 181.29 34.4427 176.675 39.8509C166.905 51.2984 155.972 61.4646 144.092 70.1481C138.229 74.4327 131.94 78.4303 124.979 79.5265C111.021 81.7245 97.2152 71.2188 90.8497 57.3335C86.8734 48.6597 85.0359 38.4759 81.8215 29.454C78.1196 29.4462 73.709 29.4477 68.9638 29.4718C55.8477 29.5385 45.1717 29.7524 45.1717 29.7524C45.1717 29.7524 57.8618 11.1991 68.9162 18.0729C72.4489 20.2696 76.149 22.2299 79.5494 23.8812C77.6177 19.7797 75.1809 16.0894 71.8288 13.1223C65.2188 7.27165 56.2664 5.63057 47.8029 6.06627C38.9155 6.5238 29.9464 9.15007 22.7247 14.8858C9.85966 25.1036 4.54697 43.0887 0 59.8472L10.9907 65.9287C15.705 61.4301 22.5987 56.9801 28.9528 60.9312C40.0073 67.8051 52.706 72.3691 52.706 72.3691C52.706 72.3691 42.1166 72.2634 29.0004 72.3301C26.7975 72.3413 24.6661 72.3567 22.6399 72.3745L144.663 139.893C184.91 140.519 215.256 138.116 253.499 139.893C255.494 139.986 259.98 128.446 259.995 125.409C260.1 104.004 258.604 82.0256 250.466 62.5962ZM211.387 68.4196C198.271 68.4864 187.595 68.7003 187.595 68.7003C187.595 68.7003 200.285 50.1469 211.339 57.0208C222.394 63.8947 235.092 68.4586 235.092 68.4586C235.092 68.4586 224.503 68.3529 211.387 68.4197L211.387 68.4196Z" fill="url(#paint0_linear_68:50)"/>
<path d="M260 131.004C260 123.261 256.071 116.983 251.223 116.983C248.177 116.983 245.494 119.464 243.92 123.229C243.388 123.008 242.818 122.894 242.243 122.893C240.776 122.893 239.419 123.644 238.313 124.917C236.894 120.222 233.886 116.983 230.405 116.983C227.149 116.983 224.31 119.817 222.795 124.022C221.953 123.312 220.892 122.913 219.791 122.893C216.071 122.893 213.056 127.71 213.056 133.653C213.04 135.634 213.4 137.6 214.117 139.447H258.23C259.341 137.099 260 134.175 260 131.004Z" fill="#FD0D92"/>
<path opacity="0.3" d="M224.37 103.381C224.37 97.7505 220.884 93.186 216.584 93.186C213.881 93.186 211.501 94.9899 210.105 97.7276C209.625 97.5658 209.123 97.4832 208.617 97.4829C207.308 97.5051 206.059 98.0324 205.13 98.9546C203.871 95.5411 201.203 93.186 198.114 93.186C195.226 93.186 192.707 95.2464 191.363 98.3042C190.574 97.775 189.648 97.4893 188.698 97.4829C185.398 97.4829 182.722 100.986 182.722 105.307C182.713 106.765 183.035 108.205 183.664 109.52H222.8C223.85 107.645 224.391 105.529 224.37 103.381V103.381Z" fill="#FD0D92"/>
<path d="M260 139.853H19.7407V139.372H259.759L260 139.853Z" fill="#2F2E41"/>
<path d="M240.259 110.002H0V109.52H240.019L240.259 110.002Z" fill="#2F2E41"/>
<path d="M101.985 65.6811C101.985 65.6811 103.498 54.5845 106.02 57.6108C108.542 60.6372 106.02 65.1767 106.02 65.1767L104.003 67.6986L101.985 66.1855V65.6811Z" fill="#FFB8B8"/>
<path d="M95.9322 69.2118C95.9322 69.2118 100.976 63.6635 101.985 64.6723C102.994 65.6811 106.02 66.1854 105.516 68.203C105.011 70.2206 94.4191 76.7776 94.4191 76.7776L95.9322 69.2118Z" fill="#FD0D92"/>
<path opacity="0.1" d="M95.9322 69.2118C95.9322 69.2118 100.976 63.6635 101.985 64.6723C102.994 65.6811 106.02 66.1854 105.516 68.203C105.011 70.2206 94.4191 76.7776 94.4191 76.7776L95.9322 69.2118Z" fill="black"/>
<path d="M67.182 68.7074V72.7425C67.182 72.7425 66.6776 81.8215 69.7039 81.3172C72.7303 80.8128 71.2171 73.2469 71.2171 73.2469L70.7127 68.7074H67.182Z" fill="#FFB8B8"/>
<path d="M68.6952 97.962C68.6952 97.962 64.1557 105.023 62.6425 105.528C61.1293 106.032 53.0591 110.572 52.0503 115.111L44.9888 124.19L48.5196 128.73C48.5196 128.73 64.66 111.581 69.1996 110.067C73.7391 108.554 78.2786 100.988 78.2786 100.988L68.6952 97.962Z" fill="#FFB8B8"/>
<path d="M104.507 86.3611C104.507 86.3611 114.09 87.8743 112.577 93.9269C111.064 99.9796 96.4366 112.589 96.4366 112.589L95.9322 115.616L90.3839 116.624L87.8619 114.103L88.3663 112.589C88.3663 112.589 94.419 107.041 94.9234 105.024C95.4278 103.006 100.976 94.9357 103.498 94.4313L99.9673 92.4138L104.507 86.3611Z" fill="#FFB8B8"/>
<path d="M46.5021 124.19C46.5021 124.19 48.5196 121.164 45.4933 121.668C42.467 122.173 40.4494 122.677 40.4494 124.695C40.4494 126.712 42.9714 140.835 45.9977 139.826C49.024 138.818 46.5021 134.278 46.5021 134.278C46.5021 134.278 48.0153 130.243 49.024 129.739C50.0328 129.234 50.0328 126.712 49.024 126.712C48.0153 126.712 45.9977 125.199 46.5021 124.19Z" fill="#2F2E41"/>
<path d="M89.3751 113.094C89.3751 113.094 89.3751 110.572 87.3575 113.094C85.34 115.616 84.3312 117.633 86.3488 119.146C88.3663 120.66 95.4278 124.19 95.4278 124.19C95.4278 124.19 102.994 125.704 101.985 122.173C101.985 122.173 96.941 119.651 96.941 117.633C96.941 115.616 96.941 112.085 95.4278 113.094C93.9146 114.103 89.3751 114.607 89.3751 113.094Z" fill="#2F2E41"/>
<path d="M79.7917 75.2644C79.7917 75.2644 72.7302 76.2732 73.2346 86.361C73.2346 86.361 64.1556 95.44 66.6776 98.4663C69.1995 101.493 74.7478 107.041 76.7654 105.528C78.7829 104.015 84.8356 92.4137 84.8356 92.4137C84.8356 92.4137 98.9585 97.4576 101.48 94.9356C104.002 92.4137 106.524 86.361 106.524 86.361L93.9146 79.8039L79.7917 75.2644Z" fill="#2F2E41"/>
<path d="M99.463 46.5142C102.806 46.5142 105.516 43.8043 105.516 40.4615C105.516 37.1187 102.806 34.4088 99.463 34.4088C96.1202 34.4088 93.4103 37.1187 93.4103 40.4615C93.4103 43.8043 96.1202 46.5142 99.463 46.5142Z" fill="#FFB8B8"/>
<path d="M94.9234 40.9659C94.9234 40.9659 91.3927 46.5142 90.3839 47.0186C89.3751 47.523 97.4454 52.5669 97.4454 52.5669C97.4454 52.5669 97.4454 46.0098 99.9673 44.4967L94.9234 40.9659Z" fill="#FFB8B8"/>
<path d="M94.4191 46.5142C94.4191 46.5142 86.3488 43.9923 84.8357 48.0274C83.3225 52.0625 79.7918 59.6284 80.2962 64.6723C80.8006 69.7162 81.8093 68.7074 80.2962 70.2206C78.783 71.7337 77.7742 70.7249 78.2786 72.7425C78.783 74.7601 79.2874 74.7601 78.783 75.7689C78.2786 76.7776 84.8357 80.3084 90.384 80.8128L95.9323 81.3171C95.9323 81.3171 95.9323 72.2381 96.941 70.2206C97.9498 68.203 99.9674 64.1679 99.9674 62.6547V58.651C99.9674 55.9862 99.272 53.3675 97.9498 51.0537V51.0537C97.9498 51.0537 94.9235 46.5142 94.4191 46.5142Z" fill="#FD0D92"/>
<path d="M88.3663 48.5317C88.3663 48.5317 69.7039 50.0449 67.6863 55.0888C65.6688 60.1327 64.66 70.2205 66.6776 70.2205C68.6951 70.2205 71.2171 71.2293 71.7215 70.2205C72.2259 69.2117 74.2434 59.1239 74.7478 59.1239C75.2522 59.1239 90.3839 57.6108 90.3839 57.6108C90.3839 57.6108 96.941 49.5405 88.3663 48.5317Z" fill="#FD0D92"/>
<path d="M99.7062 38.961C99.7062 38.961 101.312 36.1697 103.32 38.5942C105.328 41.0187 108.594 36.5632 108.093 35.6126C107.591 34.6619 105.821 35.6553 102.786 34.6634C99.7519 33.6714 93.9066 31.6506 92.9277 38.2425C91.9487 44.8344 94.2802 44.1433 94.2802 44.1433C94.2802 44.1433 95.3489 38.3022 96.3148 39.98L97.2807 41.6579L98.1185 41.8641L99.7062 38.961Z" fill="#2F2E41"/>
<path d="M156.797 23.5156C160.875 23.5156 164.181 20.2094 164.181 16.131C164.181 12.0526 160.875 8.74646 156.797 8.74646C152.718 8.74646 149.412 12.0526 149.412 16.131C149.412 20.2094 152.718 23.5156 156.797 23.5156Z" fill="#2F2E41"/>
<path d="M154.436 21.597C154.436 21.597 154.818 28.4754 154.054 28.4754C153.29 28.4754 158.831 31.7236 158.831 31.7236L162.27 29.8129V27.5201C162.27 27.5201 157.684 26.9469 159.595 21.9791C161.506 17.0113 154.436 21.597 154.436 21.597Z" fill="#9F616A"/>
<path d="M138.386 97.0688L137.813 102.801L139.724 103.374L141.252 101.846L141.825 97.0688H138.386Z" fill="#9F616A"/>
<path d="M165.9 100.317L166.856 103.947L169.53 105.667L172.397 104.139L169.148 98.7886L165.9 100.317Z" fill="#9F616A"/>
<path d="M156.251 24.5585C159.312 24.5585 161.792 22.0778 161.792 19.0175C161.792 15.9573 159.312 13.4766 156.251 13.4766C153.191 13.4766 150.71 15.9573 150.71 19.0175C150.71 22.0778 153.191 24.5585 156.251 24.5585Z" fill="#9F616A"/>
<path d="M152.907 39.7484L151.57 39.1752C151.57 39.1752 149.277 37.8377 149.086 35.1628C148.895 32.4878 150.997 29.0486 150.997 29.0486L154.054 28.0933L157.646 31.0167L157.684 35.736L152.907 39.7484Z" fill="#9F616A"/>
<path d="M151.57 29.4308L150.806 29.0486C150.806 29.0486 146.984 28.8576 146.602 33.4432C146.22 38.0288 144.883 45.6716 144.883 45.6716C144.883 45.6716 141.825 51.0215 142.017 56.7535L140.488 61.7213C140.488 61.7213 138.386 68.9819 140.87 68.9819C143.354 68.9819 143.163 61.1481 143.163 61.1481C143.163 61.1481 147.749 50.0661 148.131 48.1555C148.513 46.2448 151.761 37.2646 150.806 34.7807C149.85 32.2968 151.57 29.4308 151.57 29.4308Z" fill="#9F616A"/>
<path d="M154.436 41.468V43.5698C154.436 43.5698 155.774 45.0983 155.2 46.0537C154.627 47.009 154.054 48.9197 154.054 48.9197L156.729 53.1232L165.709 53.8875L167.495 41.9228L154.436 41.468Z" fill="#9F616A"/>
<path d="M162.843 28.0933L164.372 27.3291C164.372 27.3291 167.62 25.0362 170.295 24.6541L178.511 19.1131L183.861 6.31153C183.861 6.31153 183.67 -0.566932 185.198 0.19734C186.727 0.961613 186.536 6.88474 186.536 6.88474C186.536 6.88474 183.67 18.731 181.186 21.9791C178.702 25.2273 169.722 30.5772 169.722 30.5772C169.722 30.5772 167.238 33.4432 167.429 34.7807C167.62 36.1182 162.843 28.0933 162.843 28.0933Z" fill="#9F616A"/>
<path d="M155.774 48.9198C155.774 48.9198 153.672 47.5823 152.334 49.8751C150.997 52.1679 148.513 52.7411 146.984 59.6196C145.456 66.4981 141.826 77.389 140.87 78.1532C139.915 78.9175 135.902 86.9424 138.195 98.2154H142.017L145.265 81.9746C145.265 81.9746 155.774 68.982 156.538 63.632L159.977 83.6942C159.977 83.6942 160.168 91.3369 163.034 94.9672L166.091 102.228L170.104 100.317L165.518 81.9746C165.518 81.9746 167.811 63.441 166.282 58.2821L166.063 51.5188C166.063 51.5188 159.786 51.7858 155.774 48.9198Z" fill="#2F2E41"/>
<path d="M139.724 101.846H137.431C137.049 101.846 133.992 104.33 135.329 105.667C136.667 107.005 138.768 109.488 138.768 109.488C138.768 109.488 146.22 110.436 146.411 109.099C146.602 107.761 143.163 104.903 143.163 104.903L142.208 101.846C142.208 101.846 140.297 99.744 139.724 101.846Z" fill="#2F2E41"/>
<path d="M170.104 103.756C170.104 103.756 166.855 103.565 166.282 103.374C165.709 103.183 164.563 108.342 166.282 108.724C168.002 109.106 175.071 109.68 175.071 109.68C175.071 109.68 180.612 109.488 180.23 107.96C179.848 106.431 172.396 103.374 172.396 103.374C172.396 103.374 171.441 101.464 170.104 103.756Z" fill="#2F2E41"/>
<path d="M155.009 27.9023L154.054 27.3291L152.908 28.2844C152.908 28.2844 156.347 30.5772 155.583 32.679C154.818 34.7807 151.57 39.1753 151.57 39.1753C151.57 39.1753 154.436 42.4235 154.436 43.5699C154.436 43.5699 161.888 40.8949 167.429 43.5699C167.429 43.5699 167.429 39.7485 168.193 38.9842C168.957 38.22 169.339 35.545 167.429 33.2522C166.083 31.5651 164.869 29.7764 163.798 27.9023L161.888 26.7559L160.904 27.068C160.904 27.068 162.843 29.2397 160.932 29.4308C159.022 29.6219 155.965 29.0487 155.009 27.9023Z" fill="#FD0D92"/>
<path d="M158.094 10.4125C158.094 10.4125 155.588 13.6337 150.577 14.3495C145.567 15.0653 149.504 22.9393 149.504 22.9393C149.504 22.9393 148.072 20.076 150.935 17.5706C153.799 15.0653 158.094 13.6336 158.094 10.4125Z" fill="#2F2E41"/>
<path d="M158.285 10.2213C158.285 10.2213 159.716 15.232 161.864 15.9478C164.011 16.6637 162.937 24.1797 159.358 24.8956C159.358 24.8956 162.401 20.7796 160.611 17.5584C158.822 14.3373 157.748 11.8319 158.285 10.2213Z" fill="#2F2E41"/>
<path d="M198.668 104.62H185.485V106.148H198.668V104.62Z" fill="#2F2E41"/>
<path d="M198.668 109.97C199.302 109.97 199.815 107.917 199.815 105.384C199.815 102.852 199.302 100.798 198.668 100.798C198.035 100.798 197.522 102.852 197.522 105.384C197.522 107.917 198.035 109.97 198.668 109.97Z" fill="#2F2E41"/>
<path d="M185.485 109.97C186.118 109.97 186.631 107.917 186.631 105.384C186.631 102.852 186.118 100.798 185.485 100.798C184.852 100.798 184.338 102.852 184.338 105.384C184.338 107.917 184.852 109.97 185.485 109.97Z" fill="#2F2E41"/>
<path opacity="0.3" d="M46.7037 103.381C46.7037 97.7505 43.2176 93.186 38.9173 93.186C36.2145 93.186 33.834 94.9899 32.4379 97.7276C31.9584 97.5658 31.4559 97.4832 30.9499 97.4829C29.6413 97.5051 28.392 98.0324 27.4633 98.9546C26.2048 95.5411 23.5361 93.186 20.4473 93.186C17.5592 93.186 15.0403 95.2464 13.6961 98.3042C12.9076 97.775 11.9808 97.4893 11.0312 97.4829C7.73095 97.4829 5.05557 100.986 5.05557 105.307C5.04591 106.765 5.36784 108.205 5.99702 109.52H45.1334C46.1829 107.645 46.7242 105.529 46.7037 103.381V103.381Z" fill="#FD0D92"/>
<defs>
<linearGradient id="paint0_linear_68:50" x1="130" y1="6" x2="130" y2="140" gradientUnits="userSpaceOnUse">
<stop stop-color="#0BB839"/>
<stop offset="1" stop-color="#058527"/>
</linearGradient>
</defs>
</svg>
