<svg width="284" height="165" viewBox="0 0 284 165" fill="none" xmlns="http://www.w3.org/2000/svg">
<g clip-path="url(#clip0_27:18)">
<path d="M131.727 29.3881V22.6693L128.728 23.913C128.437 24.035 128.124 24.0972 127.808 24.0962C127.493 24.0951 127.18 24.0307 126.89 23.9068C126.599 23.783 126.337 23.6021 126.117 23.375C125.898 23.1478 125.727 22.8791 125.614 22.5846C123.598 17.2603 123.52 11.3977 125.395 6.02217C129.717 4.83648 134.038 3.65079 138.36 2.46509L140.639 23.839L131.727 29.3881Z" fill="#F9B082"/>
<path d="M126.582 46.3641C129.65 46.3641 132.138 43.8797 132.138 40.815C132.138 37.7504 129.65 35.266 126.582 35.266C123.513 35.266 121.025 37.7504 121.025 40.815C121.025 43.8797 123.513 46.3641 126.582 46.3641Z" fill="#F9B082"/>
<path d="M109.669 60.5215C111.691 60.5215 113.331 58.8838 113.331 56.8636C113.331 54.8434 111.691 53.2057 109.669 53.2057C107.646 53.2057 106.006 54.8434 106.006 56.8636C106.006 58.8838 107.646 60.5215 109.669 60.5215Z" fill="#F9B082"/>
<path d="M108.625 53.3572L122.537 36.5837L128.903 45.8566L111.313 60.132L108.625 53.3572Z" fill="#F9B082"/>
<path d="M109.669 53.2057L97.7444 36.5567C97.5594 36.2985 97.4437 35.9974 97.4081 35.6819C97.3726 35.3664 97.4184 35.0471 97.5412 34.7543L98.0291 33.5911C98.4039 32.6977 98.4312 31.6967 98.1056 30.7842L97.6004 29.3682C97.5498 29.2264 97.4649 29.0992 97.3533 28.998C97.2417 28.8968 97.1068 28.8247 96.9606 28.788C96.8143 28.7514 96.6613 28.7513 96.5151 28.7879C96.3688 28.8245 96.2339 28.8965 96.1222 28.9977V28.9977C95.9933 29.1144 95.9004 29.2654 95.8543 29.433C95.8082 29.6006 95.8109 29.7778 95.8619 29.9439L96.2875 31.3276C96.3199 31.4329 96.3138 31.5463 96.2704 31.6476C96.227 31.7489 96.149 31.8315 96.0503 31.8808V31.8808C95.9504 31.9307 95.8359 31.9431 95.7276 31.9158C95.6193 31.8884 95.5244 31.8232 95.4603 31.7319L94.2644 30.0308C94.1608 29.8835 94.0231 29.7635 93.863 29.6809C93.7028 29.5983 93.5251 29.5557 93.3449 29.5567C93.1647 29.5576 92.9874 29.6022 92.8282 29.6865C92.669 29.7707 92.5325 29.8923 92.4306 30.0407L90.4616 32.9065C90.0909 33.4461 89.9492 34.1102 90.0674 34.7538C90.1857 35.3974 90.5543 35.9681 91.0926 36.341L94.0527 38.3918L106.706 59.0075" fill="#F9B082"/>
<path d="M193.097 37.7268C191.265 37.3038 189.503 36.621 187.865 35.6993C187.771 35.646 187.679 35.5916 187.587 35.5376C185.649 32.6433 182.153 30.928 177.538 28.7601C164.573 22.6694 159.872 21.1357 154.458 15.9267C152.255 13.8065 150.332 11.6953 148.577 9.73529C150.205 10.0285 151.858 10.1574 153.511 10.1202C150.337 9.38922 147.396 7.88086 144.952 5.73117C144.305 5.04488 143.674 4.4039 143.05 3.81617L143.045 3.81141V3.81219C140.758 1.65868 138.573 0.234034 136.11 0.0463993C134.739 -0.0580231 131.36 -0.11816 128.743 1.39808C127.821 1.89681 127.029 2.6032 126.428 3.46119C125.905 4.23147 125.553 5.10475 125.395 6.0223C126.935 5.84983 129.101 5.86106 131.165 6.94714C135.507 9.231 136.659 14.8245 137.077 16.5513C140.231 29.5513 156.894 51.5899 172.979 52.4067C174.37 52.4773 182.618 53.4554 186.833 48.1957C187.963 46.7341 188.722 45.0204 189.043 43.2018C189.364 41.3831 189.238 39.5138 188.677 37.7543C188.636 37.6353 188.587 37.5247 188.543 37.4092C190.048 37.6557 191.572 37.762 193.097 37.7268V37.7268Z" fill="#DF63AC"/>
<path d="M193.097 37.7266C191.265 37.3036 189.503 36.6209 187.865 35.6992C187.771 35.6459 187.679 35.5915 187.587 35.5375C185.649 32.6432 182.153 30.9279 177.538 28.7599C164.574 22.6693 159.872 21.1356 154.458 15.9265C152.255 13.8064 150.332 11.6952 148.577 9.73515C150.205 10.0283 151.858 10.1573 153.511 10.1201C150.337 9.38907 147.396 7.88071 144.952 5.73103C144.305 5.04474 143.674 4.40376 143.05 3.81603L143.045 3.81127V3.81204C140.758 1.65854 138.573 0.23389 136.11 0.0462555C134.97 -0.0405376 132.444 -0.0934628 130.12 0.760949C131.557 1.41408 132.941 2.47162 134.365 3.81204V3.81127L134.369 3.81603C137.47 8.45933 141.326 12.5525 145.777 15.9265C152.962 21.3196 157.115 21.2346 168.857 28.7599C176.023 33.3528 178.909 36.2251 179.682 40.1483C179.851 41.0068 180.603 44.8213 178.152 48.1955C175.627 51.6718 171.566 52.1157 170.879 52.1797C171.574 52.2936 172.275 52.3693 172.979 52.4065C174.37 52.4772 182.618 53.4552 186.833 48.1955C187.963 46.7339 188.722 45.0203 189.043 43.2016C189.364 41.3829 189.238 39.5136 188.677 37.7541C188.636 37.6352 188.587 37.5245 188.543 37.4091C190.048 37.6555 191.572 37.7618 193.097 37.7266Z" fill="#CB549D"/>
<path d="M121.329 42.399C120.474 46.2943 119.619 50.1895 118.764 54.0848L128.903 45.8565L124.569 34.5757C124.061 35.9103 123.519 37.2718 122.943 38.6603C122.41 39.9432 121.872 41.1894 121.329 42.399Z" fill="#E4ECFB"/>
<path d="M160.402 78.2197C160.42 80.9502 159.526 83.6087 157.86 85.7741C156.195 87.9396 153.854 89.4881 151.207 90.1744L123.828 97.3682L131.9 129.809L125.632 133.602L109.319 98.4154C108.571 96.7994 108.423 94.9703 108.901 93.2551C109.379 91.5399 110.453 90.0505 111.929 89.0532L136.109 72.7304L135.02 67.8501L134.812 66.911C134.037 63.4276 132.04 60.3359 129.182 58.1948L128.094 57.3809C126.653 56.3015 125.394 55.0011 124.361 53.5279C124.144 53.2205 123.905 52.8563 123.654 52.4351C123.552 52.2587 123.444 52.0709 123.338 51.8745C123.338 51.8742 123.338 51.8738 123.338 51.8734C123.338 51.8731 123.338 51.8728 123.337 51.8725C123.337 51.8722 123.337 51.872 123.336 51.8719C123.336 51.8718 123.336 51.8717 123.335 51.8717C123.278 51.7607 123.218 51.6497 123.159 51.5331C123.099 51.4164 123.039 51.2969 122.979 51.1745C122.925 51.0607 122.871 50.944 122.817 50.8273C122.763 50.7078 122.708 50.5855 122.654 50.4631C122.486 50.0761 122.332 49.6805 122.198 49.2793C122.153 49.1399 122.104 48.9976 122.059 48.8553C121.968 48.5679 121.882 48.2691 121.802 47.9618L121.785 47.8934C121.742 47.7255 121.703 47.5576 121.666 47.3898C121.629 47.219 121.594 47.0511 121.563 46.8804C121.532 46.7096 121.5 46.5389 121.475 46.371V46.3682C121.452 46.2173 121.429 46.0694 121.409 45.9185C121.386 45.7222 121.364 45.5259 121.346 45.3323C121.332 45.1986 121.321 45.0677 121.315 44.9339C121.309 44.8713 121.307 44.8087 121.301 44.7461C121.292 44.5925 121.287 44.4388 121.281 44.2851C121.275 44.1115 121.272 43.9351 121.272 43.7615C121.273 43.0509 121.318 42.3409 121.406 41.6358C121.423 41.4878 121.443 41.3427 121.466 41.1976L121.891 38.4117C122.051 37.3484 122.542 36.3622 123.293 35.5916C123.499 35.3821 123.722 35.1898 123.959 35.0168L124.566 34.5757H124.569V34.5728L132.413 28.8929L135.975 26.3119L137.448 25.2447C142.637 21.4828 149.805 25.7826 148.922 32.1256L148.116 37.9023V37.9051L147.948 39.106L147.307 43.7131C147.252 44.1001 147.207 44.4871 147.17 44.8741C147.056 46.0162 147.011 47.1642 147.036 48.3117V48.3572L147.044 48.6902C147.05 48.8751 147.056 49.0601 147.067 49.2451C147.067 49.2936 147.07 49.342 147.076 49.3902C147.084 49.5894 147.099 49.7914 147.116 49.9906C147.116 50.0333 147.121 50.076 147.124 50.1187C147.144 50.3691 147.17 50.6195 147.195 50.8671C147.953 57.9042 151.237 64.4293 156.439 69.2359C157.69 70.3745 158.689 71.762 159.372 73.3092C160.054 74.8564 160.405 76.529 160.402 78.2197V78.2197Z" fill="#F9B082"/>
<path d="M148.242 36.9951L141.343 34.7852L148.76 33.2867L148.242 36.9951Z" fill="#E4ECFB"/>
<path d="M170.649 33.2911C170.939 32.7339 171.08 32.1113 171.06 31.4834C171.039 30.8556 170.856 30.2437 170.529 29.7069C170.203 29.1701 169.743 28.7264 169.195 28.4187C168.646 28.111 168.028 27.9496 167.399 27.9502L144.152 24.0505L144.151 24.0539C143.44 23.8516 142.695 23.7931 141.961 23.882C141.227 23.9708 140.519 24.2052 139.877 24.5714C139.234 24.9375 138.672 25.4281 138.222 26.0142C137.773 26.6004 137.445 27.2703 137.258 27.9848C137.071 28.6992 137.029 29.4437 137.134 30.1746C137.239 30.9055 137.489 31.6081 137.87 32.2412C138.25 32.8742 138.754 33.425 139.35 33.8611C139.947 34.2972 140.625 34.6099 141.344 34.7809L141.343 34.7851L141.362 34.7854C142.137 34.9719 142.943 34.9867 143.723 34.829L162.081 35.1678L152.326 49.2884C152.213 49.4528 152.052 49.5795 151.866 49.652C151.68 49.7245 151.476 49.7396 151.281 49.6952L149.106 49.2003C148.82 49.1353 148.523 49.1351 148.237 49.1998C147.951 49.2646 147.683 49.3926 147.453 49.5745L142.126 53.7881C141.892 53.9729 141.737 54.2389 141.691 54.533C141.645 54.8271 141.711 55.1277 141.877 55.375C142.043 55.6222 142.297 55.7979 142.586 55.867C142.876 55.9361 143.182 55.8936 143.442 55.7479L144.419 55.1998C144.698 55.0433 145.014 54.9643 145.334 54.9711C145.654 54.9778 145.967 55.0701 146.239 55.2383L148.336 56.5338C148.785 56.8109 149.318 56.9184 149.838 56.8369C150.359 56.7555 150.834 56.4905 151.176 56.0899L169.586 34.537C170.028 34.2081 170.391 33.784 170.646 33.2962L170.65 33.2913L170.649 33.2911Z" fill="#F9B082"/>
<path d="M171.062 31.6081C171.062 31.1278 170.967 30.6521 170.783 30.2083C170.599 29.7645 170.329 29.3613 169.989 29.0216C169.649 28.6819 169.245 28.4125 168.801 28.2287C168.356 28.0448 167.88 27.9502 167.399 27.9502L144.152 24.0505L144.151 24.0539C143.234 23.7904 142.264 23.769 141.337 23.9918C140.409 24.2146 139.555 24.674 138.858 25.3251C138.949 25.3208 139.038 25.3115 139.129 25.3115C139.642 25.3126 140.153 25.3849 140.646 25.5262L140.647 25.5229C141.444 26.2685 142.325 26.9199 143.271 27.4639C146.08 29.0745 148.826 29.3394 157.326 29.4134C159.203 29.4297 161.412 29.4372 163.894 29.4225C165.287 29.4661 166.534 30.0726 167.085 31.0509C167.4 31.6811 167.562 32.3763 167.557 33.0805C167.555 33.2972 167.536 33.5135 167.499 33.7271C167.434 34.0884 167.314 34.4378 167.144 34.7635L167.146 34.7636L167.142 34.7685C166.886 35.2564 166.524 35.6804 166.082 36.0094C164.907 36.9754 163.782 38.0012 162.713 39.0827C159.346 42.4878 157.772 45.1885 155.53 48.2842C153.39 51.2312 151.034 54.0156 148.481 56.6145C148.923 56.8413 149.428 56.9146 149.916 56.8228C150.407 56.7287 150.852 56.4702 151.176 56.0899L169.586 34.537C170.028 34.2081 170.391 33.784 170.646 33.2962L170.65 33.2913L170.649 33.2912C170.92 32.7715 171.062 32.1941 171.062 31.6081V31.6081Z" fill="#E4ECFB"/>
<path d="M148.822 50.7607L149.792 49.3564L149.106 49.2003C148.82 49.1352 148.523 49.1351 148.237 49.1998C147.951 49.2646 147.683 49.3926 147.453 49.5744L145.961 50.7545L147.776 51.1675C147.971 51.2119 148.175 51.1968 148.362 51.1243C148.548 51.0518 148.708 50.9251 148.822 50.7607V50.7607Z" fill="#F8B07E"/>
<path d="M199.716 145.177L167.085 126.596C162.738 124.12 159.272 120.352 157.169 115.816L148.484 97.0736L145.929 91.5621L156.439 69.2354C156.439 69.2354 162.191 74.4693 163.794 81.3875C163.962 82.1051 164.08 82.8337 164.147 83.5678C164.859 91.534 171.698 112.735 171.698 112.735L198.954 135.501L199.716 145.177Z" fill="#1E57F1"/>
<path d="M148.119 37.908C148.163 37.9937 148.189 38.0877 148.196 38.184L148.119 37.908Z" fill="#F9B082"/>
<path d="M198.955 135.5L204.322 139.911L202.754 147.511L199.715 145.175L198.955 135.5Z" fill="#F9B082"/>
<path d="M147.17 44.8742C147.056 46.0163 147.011 47.1643 147.036 48.3118V48.3573L147.044 48.6903C147.05 48.8752 147.056 49.0602 147.067 49.2452C147.067 49.2909 147.07 49.3365 147.075 49.3819C147.106 49.5744 147.12 49.7692 147.117 49.9641C147.116 50.0158 147.118 50.0674 147.124 50.1188C147.144 50.3692 147.167 50.6196 147.195 50.8672C143.756 51.6156 139.944 52.2815 135.795 52.7624C131.687 53.2405 127.854 53.4653 124.361 53.5279C124.144 53.2205 123.905 52.8563 123.654 52.4351C123.552 52.2587 123.444 52.0709 123.338 51.8746C123.338 51.8742 123.338 51.8738 123.338 51.8735C123.338 51.8731 123.338 51.8728 123.337 51.8725C123.337 51.8723 123.337 51.872 123.336 51.8719C123.336 51.8718 123.336 51.8717 123.335 51.8717C123.278 51.7607 123.218 51.6497 123.159 51.5331C123.099 51.4164 123.039 51.2969 122.979 51.1745C122.925 51.0607 122.871 50.944 122.817 50.8274C122.763 50.7078 122.708 50.5855 122.654 50.4631C122.495 50.0903 122.344 49.6976 122.198 49.2793C122.153 49.1399 122.104 48.9976 122.059 48.8553C121.968 48.5679 121.882 48.2691 121.802 47.9618L121.785 47.8935C121.742 47.7256 121.703 47.5577 121.666 47.3898C121.629 47.219 121.594 47.0511 121.563 46.8804C121.532 46.7097 121.5 46.5389 121.475 46.371V46.3682C121.452 46.2174 121.429 46.0694 121.409 45.9186C121.386 45.7222 121.364 45.5259 121.346 45.3324C121.332 45.1986 121.321 45.0677 121.315 44.934C121.309 44.8713 121.307 44.8087 121.301 44.7461C121.292 44.5925 121.287 44.4388 121.281 44.2851C121.275 44.1115 121.272 43.9351 121.272 43.7615C121.273 43.0509 121.318 42.341 121.406 41.6358C122.025 39.1515 123.085 36.1095 123.293 35.5916C123.499 35.3821 123.722 35.1899 123.959 35.0168L124.566 34.5757H124.569C124.567 34.5837 124.565 34.5914 124.56 34.5985C123.575 37.686 122.549 40.9159 123.543 41.8066C124.181 42.3785 125.694 42.0285 126.726 41.3569C129.151 39.7776 128.621 36.6161 130.809 31.7756C130.972 31.4159 131.151 31.0314 131.367 30.6179C131.906 29.5899 132.677 28.7008 133.618 28.0202L135.975 26.3119C135.975 26.3119 130.809 31.7756 132.898 37.2307C134.652 41.8131 140.246 43.3005 144.061 41.983C145.609 41.4206 146.959 40.421 147.948 39.106L147.307 43.7132C147.252 44.1002 147.207 44.4872 147.17 44.8742Z" fill="#6D7FFF"/>
<path d="M163.794 81.3875C163.169 85.2579 161.363 88.8415 158.623 91.6489C155.883 94.4563 152.342 96.3507 148.484 97.0736C147.632 95.2364 146.781 93.3993 145.929 91.5621L156.439 69.2354C156.439 69.2354 162.192 74.4693 163.794 81.3875Z" fill="#1E57F1"/>
<path d="M147.195 50.8671C143.756 51.6155 139.944 52.2814 135.795 52.7624C131.687 53.2404 127.854 53.4652 124.361 53.5278C123.838 52.7818 123.376 51.9948 122.979 51.1745C125.563 51.1233 130.675 50.9468 135.51 50.3435C139.12 49.8939 143.605 49.0459 147.036 48.343C147.05 49.1882 147.103 50.0296 147.195 50.8671Z" fill="#4A6CFF"/>
<path d="M160.402 78.2197C160.42 80.9502 159.526 83.6087 157.86 85.7741C156.195 87.9395 153.854 89.488 151.207 90.1743L123.828 97.3682L131.9 129.809L125.632 133.602L109.319 98.4154C108.571 96.7994 108.423 94.9703 108.901 93.2551C109.379 91.5398 110.453 90.0504 111.929 89.0531L136.109 72.7304L135.02 67.8501L149.635 59.8082C151.246 63.3748 153.56 66.581 156.439 69.2359C157.69 70.3746 158.689 71.762 159.372 73.3092C160.054 74.8564 160.405 76.529 160.402 78.2197V78.2197Z" fill="#3E79F9"/>
<path d="M157.916 70.8602C157.613 73.2922 156.585 75.5769 154.965 77.4176C153.344 79.2583 151.208 80.57 148.831 81.1822L131.326 85.7818C128.695 86.4731 126.442 88.1711 125.055 90.5085C123.668 92.8458 123.258 95.6346 123.914 98.2714L129.524 120.817C127.715 121.912 126.308 123.562 125.515 125.522C124.723 127.481 124.586 129.644 125.126 131.688L125.632 133.602L131.9 129.809L123.828 97.3682L151.207 90.1744C153.854 89.4881 156.195 87.9395 157.86 85.7741C159.526 83.6087 160.42 80.9502 160.402 78.2197C160.408 75.5601 159.534 72.9731 157.916 70.8602V70.8602Z" fill="#1E57F1"/>
<path d="M125.632 133.602L127.746 139.413L134.514 136.507L131.9 129.809" fill="#F9B082"/>
<path d="M125.632 136.994C128.457 136.172 130.954 134.491 132.778 132.185C132.875 132.06 132.997 131.957 133.137 131.882C133.277 131.808 133.431 131.763 133.589 131.752C133.747 131.74 133.905 131.762 134.054 131.815C134.203 131.869 134.34 131.953 134.454 132.062C136.041 133.588 137.628 135.113 139.214 136.638L121.691 155.704C121.459 154.582 121.387 153.432 121.477 152.29C121.788 148.461 123.824 146.805 124.968 142.899C125.519 140.982 125.743 138.986 125.632 136.994V136.994Z" fill="#ED69AC"/>
<path d="M139.215 136.638L140.055 137.597C140.233 137.801 140.329 138.065 140.322 138.336C140.315 138.607 140.206 138.865 140.017 139.06L123.596 155.985C123.407 156.18 123.152 156.296 122.88 156.312C122.609 156.327 122.342 156.24 122.132 156.067L121.691 155.704L139.215 136.638Z" fill="#D451A9"/>
<path d="M129.41 140.347C130.148 140.943 131.649 141.727 132.352 140.661C132.657 140.091 132.891 139.487 133.049 138.86C133.308 138.073 133.526 137.273 133.703 136.464C133.92 135.486 132.415 135.068 132.197 136.049C132.051 136.707 131.884 137.358 131.685 138.002C131.544 138.457 131.358 139.501 131.002 139.83L131.554 139.602C131.366 139.614 131.177 139.589 130.998 139.528C130.82 139.466 130.655 139.37 130.514 139.244C129.74 138.619 128.628 139.716 129.41 140.347V140.347Z" fill="#EDC8F0"/>
<path d="M201.328 148.589C202.744 146.012 203.32 143.06 202.976 140.141C202.956 139.984 202.97 139.825 203.016 139.674C203.062 139.522 203.139 139.382 203.243 139.262C203.346 139.143 203.474 139.046 203.617 138.979C203.761 138.911 203.916 138.874 204.075 138.871C206.277 138.829 208.479 138.787 210.681 138.745L211.789 164.602C210.83 163.972 209.965 163.21 209.22 162.338C206.729 159.411 206.996 156.802 205.039 153.233C204.072 151.488 202.817 149.918 201.328 148.589V148.589Z" fill="#ED69AC"/>
<path d="M210.681 138.745L211.954 138.83C212.225 138.848 212.479 138.967 212.666 139.163C212.853 139.36 212.959 139.619 212.963 139.89L213.335 163.455C213.339 163.726 213.241 163.989 213.06 164.191C212.879 164.394 212.628 164.52 212.357 164.547L211.789 164.602L210.681 138.745Z" fill="#D451A9"/>
<path d="M206.374 148.291C207.316 148.182 208.944 147.687 208.674 146.426C208.386 145.086 207.379 143.642 206.655 142.505C206.117 141.661 204.765 142.442 205.307 143.292C205.668 143.861 206.013 144.439 206.328 145.035C206.553 145.462 207.153 146.3 207.133 146.801L207.362 146.25C207.108 146.533 206.754 146.706 206.374 146.732C205.388 146.846 205.376 148.407 206.374 148.291V148.291Z" fill="#EDC8F0"/>
<path d="M131.727 22.6696L135.709 20.7644L131.727 26.3118V22.6696Z" fill="#E4ECFB"/>
<path d="M211.789 96.7052L283.891 78.7208" stroke="#FFD61E" stroke-linecap="round" stroke-linejoin="round"/>
<path d="M211.789 108.195L240.674 100.99" stroke="#FFD61E" stroke-linecap="round" stroke-linejoin="round"/>
<path d="M0 51.1483L72.1017 33.1639" stroke="#FFD61E" stroke-linecap="round" stroke-linejoin="round"/>
<path d="M50.8036 49.9666L79.6889 42.7617" stroke="#FFD61E" stroke-linecap="round" stroke-linejoin="round"/>
</g>
<defs>
<clipPath id="clip0_27:18">
<rect width="283.891" height="164.602" fill="white"/>
</clipPath>
</defs>
</svg>
